mtllib body.mtl
usemtl body

g body
v 0.4649422 -0.08603848 -0.0497001
v 0.499949 -0.06817131 -0.05692418
v 0.4906716 -0.06201975 -0.06865064
v 0.4999322 -0.08023195 -0.04161343
v 0.4649349 -0.09223468 -0.04322642
v 0.4999237 -0.08702654 -0.03473801
v 0.5349209 -0.07372328 -0.03239634
v 0.5349475 -0.04709385 -0.05660569
v 0.6499982 -0.05229957 0.004879803
v 0.5349125 -0.08141787 -0.02471141
v 0.4999901 -0.1012539 -0.009452535
v 0.5348799 -0.09383802 0.003017082
v 0.6499982 -0.02400045 -0.01096057
v 0.6499982 -0.009882851 -0.01334446
v 0.556803 -0.0119205 -0.05686869
v 0.7074989 -0.01395333 0.01693923
v 0.7074989 -0.00574481 0.01550841
v 0.6499982 -0.06100032 0.01647959
v 0.6499982 -0.06759947 0.04335031
v 0.7074989 -0.0354639 0.03340212
v 0.7074989 -0.03040536 0.02644225
v 0.7649984 1.891004E-07 0.06200044
v 0.7649984 1.891004E-07 0.06200044
v 0.6499982 0.009882023 -0.01334446
v 0.556803 0.01191968 -0.05686869
v 0.5349475 0.04709302 -0.05660569
v 0.6499982 0.02399962 -0.01096057
v 0.7074989 0.0139525 0.01693923
v 0.7074989 0.005745188 0.01550841
v 0.7649984 1.891004E-07 0.06200044
v 0.7074989 0.03040574 0.02644225
v 0.7649984 1.891004E-07 0.06200044
v 0.6499982 0.05229995 0.004879803
v 0.5349209 0.07372245 -0.03239634
v 0.499949 0.06817048 -0.05692418
v 0.6499982 0.06099949 0.01647959
v 0.5349125 0.08141704 -0.02471141
v 0.4999322 0.08023112 -0.04161343
v 0.4999237 0.08702692 -0.03473801
v 0.5348799 0.09383719 0.003017082
v 0.4999901 0.1012543 -0.009452535
v 0.4649422 0.08603886 -0.0497001
v 0.4649349 0.09223506 -0.04322642
v 0.4649084 0.1039591 -0.02094736
v 0.6499982 0.06759984 0.04335031
v 0.7074989 0.03930071 0.0495248
v 0.7074953 0.04034548 0.06842707
v 0.6499934 0.06939621 0.0748537
v 0.7074989 0.03546428 0.03340212
v 0.7649984 1.891004E-07 0.06200044
v 0.4999901 0.100002 0.0943978
v -0.1209235 0.1080018 0.06364118
v -0.1208788 0.1060728 -0.02038155
v -0.2983248 0.1080018 0.08806407
v -0.3070219 0.1053634 -0.01632795
v -0.1208788 0.1054153 -0.04110673
v -0.5000295 0.130293 0.1259941
v -0.5000295 0.1209999 -0.01730757
v -0.3070219 0.1053622 -0.04499022
v 0.7649984 1.891004E-07 0.06200044
v -0.3070219 0.09590018 -0.06502533
v -0.5000295 0.1510025 -0.07500971
v -0.5000295 0.1149026 -0.1260101
v -0.3070219 0.08665293 -0.07306857
v -0.1208788 0.0958097 -0.06103689
v -0.1208788 0.08751673 -0.06859635
v -0.3070219 0.06047469 -0.08724649
v -0.1208788 0.06215283 -0.08547062
v -0.5000295 0.08740211 -0.1399118
v 0.4649712 0.06525696 -0.07535475
v 0.4649856 0.05146752 -0.08851444
v -0.1208788 0.04673592 -0.09222782
v -0.1208788 0.01301752 -0.09960753
v 0.4649965 0.01607461 -0.09944949
v 0.4999949 0.01607219 -0.09806933
v 0.4649965 -0.01607423 -0.09944949
v 0.4999949 -0.01607182 -0.09806933
v 0.5299758 0.01479097 -0.08110337
v 0.4999756 0.04911499 -0.08052066
v 0.5299758 -0.0147918 -0.08110337
v 0.4649856 -0.05146714 -0.08851444
v -0.1208788 -0.04673674 -0.09222782
v -0.1208788 -0.01301835 -0.09960753
v -0.3070219 -0.04491384 -0.09294323
v -0.3070219 -0.01197238 -0.09964492
v -0.3070219 -0.06047552 -0.08724649
v -0.1208788 -0.06215245 -0.08547062
v -0.3070219 -0.08665255 -0.07306857
v -0.1208788 -0.08751635 -0.06859635
v 0.4649712 -0.0652578 -0.07535475
v -0.5000295 -0.08740174 -0.1399118
v -0.5000295 -0.0539005 -0.1315102
v -0.5000295 -0.1149022 -0.1260101
v -0.4998232 -0.01308953 -0.1193097
v -0.3070219 -0.095901 -0.06502533
v -0.5000295 -0.1510033 -0.07500971
v -0.3070219 -0.105363 -0.04499022
v 0.4999756 -0.04911581 -0.08052066
v -0.1208788 -0.09580932 -0.06103689
v 0.4649084 -0.1039587 -0.02094736
v -0.1208788 -0.1054149 -0.04110673
v -0.1208788 -0.1060724 -0.02038155
v -0.3070219 -0.105363 -0.01632795
v -0.3070219 -0.105363 -0.04499022
v -0.1209235 -0.1080027 0.06364118
v -0.2983248 -0.1080027 0.08806407
v -0.5000295 -0.1210007 -0.01730757
v -0.5000295 -0.1302926 0.1259941
v 0.4999901 -0.1000016 0.0943978
v 0.6499934 -0.06939583 0.0748537
v 0.7074953 -0.0403451 0.06842707
v 0.7074989 -0.03930034 0.0495248
v 0.7649984 1.891004E-07 0.06200044
v 0.7649984 1.891004E-07 0.06200044
v -0.5000295 -0.1428032 -0.04420966
v -0.3070219 -0.105363 -0.04499022
v 0.4906716 0.06201892 -0.06865064
v -0.5000295 0.05390088 -0.1315102
v -0.3070219 0.04491421 -0.09294323
v -0.4998232 0.01308991 -0.1193097
v -0.3070219 0.01197276 -0.09964492
v 0.7649984 1.891004E-07 0.06200044
v -0.5000295 0.1428024 -0.04420966
v 0.7649984 1.891004E-07 0.06200044
v 0.7649984 1.891004E-07 0.06200044

vn 0.1843079 -0.7411529 -0.6455408
vn 0.3019512 -0.7254672 -0.6184843
vn 0.247051 -0.7411529 -0.624226
vn 0.2862654 -0.7176243 -0.6348759
vn 0.1372505 -0.7960532 -0.5894588
vn 0.2784225 -0.7803674 -0.5599174
vn 0.3333228 -0.6784099 -0.6547182
vn 0.3960659 -0.4352803 -0.8084942
vn 0.4117517 -0.599981 -0.6859179
vn 0.3097941 -0.7882103 -0.5317445
vn 0.2078366 -0.952911 -0.2208273
vn 0.2627368 -0.9450681 -0.1944626
vn 0.4352803 -0.3019512 -0.8481489
vn 0.4274374 -0.1137219 -0.8968638
vn 0.4195945 -0.1294077 -0.8984398
vn 0.5529236 -0.2862654 -0.7825136
vn 0.5450808 -0.07450744 -0.8350662
vn 0.3725372 -0.8352676 -0.4044059
vn 0.3254799 -0.9372252 -0.1251873
vn 0.5372379 -0.7646816 -0.3558616
vn 0.5529236 -0.5529236 -0.6233386
vn 0.7097814 -0.3254799 -0.6247185
vn 0.6862528 -0.4195945 -0.594136
vn 0.4274374 0.1137219 -0.8968638
vn 0.4195945 0.1294077 -0.8984398
vn 0.3960659 0.4352803 -0.8084942
vn 0.4352803 0.3019512 -0.8481489
vn 0.5529236 0.2862654 -0.7825136
vn 0.5450808 0.07450744 -0.8350662
vn 0.7489958 0.003921444 -0.6625631
vn 0.5529236 0.5529236 -0.6233386
vn 0.7097814 0.3254799 -0.6247185
vn 0.4117517 0.599981 -0.6859179
vn 0.3333228 0.6784099 -0.6547182
vn 0.3019512 0.7254672 -0.6184843
vn 0.3725372 0.8352676 -0.4044059
vn 0.3097941 0.7882103 -0.5317445
vn 0.2862654 0.7176243 -0.6348759
vn 0.2784225 0.7803674 -0.5599174
vn 0.2627368 0.9450681 -0.1944626
vn 0.2078366 0.952911 -0.2208273
vn 0.1843079 0.7411529 -0.6455408
vn 0.1372505 0.7960532 -0.5894588
vn 0.06666455 0.9764396 -0.2052353
vn 0.3254799 0.9372252 -0.1251873
vn 0.5137092 0.8509534 -0.1094586
vn 0.5058663 0.8587963 -0.08104439
vn 0.3254799 0.9450681 -0.0301531
vn 0.5372379 0.7646816 -0.3558616
vn 0.670567 0.5058663 -0.5426226
vn 0.1370348 0.9905662 0
vn 0.003921444 0.9999683 -0.006931186
vn 0.003921444 0.9999683 -0.006931186
vn 0.04309718 0.9990709 0
vn 0.06666455 0.9921254 0.1060332
vn 0.003921444 0.9685968 -0.248606
vn 0.09019322 0.9921254 -0.08690446
vn 0.08235033 0.9450681 0.3163301
vn 0.1372505 0.9842825 -0.1111317
vn 0.6548812 0.599981 -0.4595144
vn 0.1686221 0.7882103 -0.591854
vn 0.2548939 0.9293823 -0.2669788
vn 0.2862654 0.6313525 -0.720726
vn 0.1529363 0.5686094 -0.8082659
vn 0.01960722 0.8038961 -0.5944465
vn 0.01960722 0.6470383 -0.7622054
vn 0.1529363 0.4195945 -0.8947351
vn 0.003921444 0.5137092 -0.8579554
vn 0.2705797 0.1843079 -0.9448901
vn 0.105879 0.7019385 -0.7043238
vn 0.09019322 0.4823377 -0.8713297
vn 0.003921444 0.3097941 -0.9507956
vn 0.003921444 0.1137219 -0.9935049
vn 0.01960722 0.1372505 -0.9903423
vn 0.2627368 0.247051 -0.9327031
vn 0.01960722 -0.1372505 -0.9903423
vn 0.2627368 -0.247051 -0.9327031
vn 0.4901805 0.2156794 -0.8445149
vn 0.3097941 0.5372379 -0.7844763
vn 0.4901805 -0.2156794 -0.8445149
vn 0.09019322 -0.4823377 -0.8713297
vn 0.003921444 -0.3097941 -0.9507956
vn 0.003921444 -0.1137219 -0.9935049
vn 0.1294077 -0.09803611 -0.9867333
vn 0.035293 -0.1372505 -0.9899074
vn 0.1529363 -0.4117517 -0.8983713
vn 0.01176433 -0.5137092 -0.8578837
vn 0.1294077 -0.5607665 -0.8177986
vn 0.01960722 -0.6548812 -0.7554774
vn 0.105879 -0.7019385 -0.7043238
vn 0.2705797 -0.1843079 -0.9448901
vn 0.176465 0.2627368 -0.9485934
vn 0.2862654 -0.6313525 -0.720726
vn 0.1450934 0.04313589 -0.9884772
vn 0.1686221 -0.7882103 -0.591854
vn 0.2548939 -0.9293823 -0.2669788
vn 0.1137219 -0.9842825 -0.1351122
vn 0.3097941 -0.5372379 -0.7844763
vn 0.01960722 -0.8038961 -0.5944465
vn 0.06666455 -0.9764396 -0.2052353
vn 0.003921444 -0.9685968 -0.248606
vn 0.003921444 -0.9999683 -0.006931186
vn 0.04309718 -0.9990709 0
vn 0.1293392 -0.9916005 0
vn 0.003921444 -0.9999683 -0.006931186
vn 0.04309718 -0.9990709 0
vn 0.1137219 -0.9764396 0.1833932
vn 0.09019322 -0.9921254 -0.08690446
vn 0.1370348 -0.9905662 0
vn 0.3254799 -0.9450681 -0.0301531
vn 0.5058663 -0.8587963 -0.08104439
vn 0.5137092 -0.8509534 -0.1094586
vn 0.670567 -0.5058663 -0.5426226
vn 0.6548812 -0.599981 -0.4595144
vn 0.1686221 -0.8744821 0.454805
vn 0.105879 -0.9685968 0.2249665
vn 0.247051 0.7411529 -0.624226
vn 0.176465 -0.2627368 -0.9485934
vn 0.1294077 0.09803611 -0.9867333
vn 0.1450934 -0.04313589 -0.9884772
vn 0.035293 0.1372505 -0.9899074
vn 0.6862528 0.4195945 -0.594136
vn 0.1529363 0.9372252 0.3133998
vn 0.7333101 0.2156794 -0.644778
vn 0.7333101 -0.2156794 -0.644778

f 1/1/1 3/3/3 2/2/2
f 4/4/4 1/1/1 2/2/2
f 4/4/4 5/5/5 1/1/1
f 4/4/4 6/6/6 5/5/5
f 6/6/6 4/4/4 7/7/7
f 2/2/2 7/7/7 4/4/4
f 2/2/2 8/8/8 7/7/7
f 7/7/7 8/8/8 9/9/9
f 6/6/6 7/7/7 10/10/10
f 9/9/9 10/10/10 7/7/7
f 11/11/11 6/6/6 10/10/10
f 11/11/11 10/10/10 12/12/12
f 8/8/8 13/13/13 9/9/9
f 8/8/8 14/14/14 13/13/13
f 8/8/8 15/15/15 14/14/14
f 16/16/16 13/13/13 14/14/14
f 9/9/9 13/13/13 16/16/16
f 16/16/16 14/14/14 17/17/17
f 9/9/9 18/18/18 10/10/10
f 12/12/12 10/10/10 18/18/18
f 12/12/12 18/18/18 19/19/19
f 20/20/20 18/18/18 9/9/9
f 20/20/20 9/9/9 21/21/21
f 9/9/9 16/16/16 21/21/21
f 21/21/21 16/16/16 22/22/22
f 23/23/23 20/20/20 21/21/21
f 24/24/24 14/14/14 15/15/15
f 24/24/24 15/15/15 25/25/25
f 24/24/24 25/25/25 26/26/26
f 27/27/27 24/24/24 26/26/26
f 24/24/24 27/27/27 28/28/28
f 24/24/24 28/28/28 29/29/29
f 14/14/14 29/29/29 17/17/17
f 14/14/14 24/24/24 29/29/29
f 29/29/29 30/30/30 17/17/17
f 27/27/27 31/31/31 28/28/28
f 31/31/31 32/32/32 28/28/28
f 27/27/27 33/33/33 31/31/31
f 33/33/33 27/27/27 26/26/26
f 33/33/33 26/26/26 34/34/34
f 34/34/34 26/26/26 35/35/35
f 34/34/34 36/36/36 33/33/33
f 34/34/34 37/37/37 36/36/36
f 37/37/37 34/34/34 38/38/38
f 38/38/38 34/34/34 35/35/35
f 37/37/37 38/38/38 39/39/39
f 40/40/40 37/37/37 39/39/39
f 36/36/36 37/37/37 40/40/40
f 40/40/40 39/39/39 41/41/41
f 42/42/42 39/39/39 38/38/38
f 35/35/35 42/42/42 38/38/38
f 42/42/42 43/43/43 39/39/39
f 41/41/41 39/39/39 43/43/43
f 41/41/41 43/43/43 44/44/44
f 36/36/36 40/40/40 45/45/45
f 36/36/36 45/45/45 46/46/46
f 45/45/45 47/47/47 46/46/46
f 45/45/45 48/48/48 47/47/47
f 36/36/36 46/46/46 49/49/49
f 46/46/46 50/50/50 49/49/49
f 48/48/48 45/45/45 51/51/51
f 40/40/40 41/41/41 51/51/51
f 45/45/45 40/40/40 51/51/51
f 41/41/41 44/44/44 51/51/51
f 44/44/44 52/52/52 51/51/51
f 44/44/44 53/53/53 52/52/52
f 53/53/53 54/54/54 52/52/52
f 53/53/53 55/55/55 54/54/54
f 56/56/56 53/53/53 44/44/44
f 43/43/43 56/56/56 44/44/44
f 57/57/57 54/54/54 55/55/55
f 57/57/57 55/55/55 58/58/58
f 53/53/53 59/59/59 55/55/55
f 53/53/53 56/56/56 59/59/59
f 47/47/47 60/60/60 46/46/46
f 61/61/61 59/59/59 56/56/56
f 59/59/59 61/61/61 62/62/62
f 61/61/61 63/63/63 62/62/62
f 61/61/61 64/64/64 63/63/63
f 65/65/65 64/64/64 61/61/61
f 61/61/61 56/56/56 65/65/65
f 65/65/65 66/66/66 64/64/64
f 66/66/66 67/67/67 64/64/64
f 63/63/63 64/64/64 67/67/67
f 66/66/66 68/68/68 67/67/67
f 63/63/63 67/67/67 69/69/69
f 70/70/70 68/68/68 66/66/66
f 70/70/70 71/71/71 68/68/68
f 68/68/68 71/71/71 72/72/72
f 71/71/71 73/73/73 72/72/72
f 71/71/71 74/74/74 73/73/73
f 71/71/71 75/75/75 74/74/74
f 75/75/75 76/76/76 74/74/74
f 75/75/75 77/77/77 76/76/76
f 78/78/78 77/77/77 75/75/75
f 78/78/78 75/75/75 79/79/79
f 75/75/75 71/71/71 79/79/79
f 78/78/78 80/80/80 77/77/77
f 81/81/81 76/76/76 77/77/77
f 82/82/82 76/76/76 81/81/81
f 82/82/82 83/83/83 76/76/76
f 74/74/74 83/83/83 73/73/73
f 74/74/74 76/76/76 83/83/83
f 84/84/84 83/83/83 82/82/82
f 84/84/84 85/85/85 83/83/83
f 73/73/73 83/83/83 85/85/85
f 86/86/86 84/84/84 82/82/82
f 86/86/86 82/82/82 87/87/87
f 87/87/87 82/82/82 81/81/81
f 87/87/87 88/88/88 86/86/86
f 88/88/88 87/87/87 89/89/89
f 89/89/89 87/87/87 90/90/90
f 87/87/87 81/81/81 90/90/90
f 91/91/91 86/86/86 88/88/88
f 91/91/91 84/84/84 86/86/86
f 84/84/84 91/91/91 92/92/92
f 91/91/91 88/88/88 93/93/93
f 89/89/89 90/90/90 1/1/1
f 84/84/84 92/92/92 94/94/94
f 85/85/85 84/84/84 94/94/94
f 95/95/95 93/93/93 88/88/88
f 95/95/95 88/88/88 89/89/89
f 93/93/93 95/95/95 96/96/96
f 97/97/97 96/96/96 95/95/95
f 1/1/1 90/90/90 3/3/3
f 98/98/98 3/3/3 90/90/90
f 98/98/98 90/90/90 81/81/81
f 98/98/98 81/81/81 77/77/77
f 98/98/98 77/77/77 80/80/80
f 1/1/1 99/99/99 89/89/89
f 99/99/99 97/97/97 95/95/95
f 95/95/95 89/89/89 99/99/99
f 1/1/1 5/5/5 99/99/99
f 100/100/100 99/99/99 5/5/5
f 100/100/100 101/101/101 99/99/99
f 99/99/99 101/101/101 97/97/97
f 100/100/100 102/102/102 101/101/101
f 103/103/103 101/101/101 102/102/102
f 103/103/103 104/104/104 101/101/101
f 105/105/105 103/103/103 102/102/102
f 105/105/105 106/106/106 103/103/103
f 107/107/107 103/103/103 106/106/106
f 104/104/104 103/103/103 107/107/107
f 107/107/107 106/106/106 108/108/108
f 109/109/109 102/102/102 100/100/100
f 109/109/109 105/105/105 102/102/102
f 109/109/109 100/100/100 11/11/11
f 100/100/100 6/6/6 11/11/11
f 100/100/100 5/5/5 6/6/6
f 109/109/109 11/11/11 12/12/12
f 109/109/109 12/12/12 19/19/19
f 109/109/109 19/19/19 110/110/110
f 111/111/111 110/110/110 19/19/19
f 111/111/111 19/19/19 112/112/112
f 112/112/112 19/19/19 18/18/18
f 112/112/112 18/18/18 20/20/20
f 113/113/113 112/112/112 20/20/20
f 114/114/114 111/111/111 112/112/112
f 115/115/115 116/116/116 107/107/107
f 96/96/96 104/104/104 115/115/115
f 117/117/117 70/70/70 42/42/42
f 35/35/35 117/117/117 42/42/42
f 42/42/42 70/70/70 66/66/66
f 66/66/66 43/43/43 42/42/42
f 66/66/66 65/65/65 43/43/43
f 71/71/71 70/70/70 117/117/117
f 71/71/71 117/117/117 79/79/79
f 43/43/43 65/65/65 56/56/56
f 118/118/118 69/69/69 119/119/119
f 119/119/119 69/69/69 67/67/67
f 68/68/68 119/119/119 67/67/67
f 68/68/68 72/72/72 119/119/119
f 120/120/120 118/118/118 119/119/119
f 120/120/120 119/119/119 121/121/121
f 72/72/72 121/121/121 119/119/119
f 72/72/72 73/73/73 121/121/121
f 73/73/73 85/85/85 121/121/121
f 49/49/49 122/122/122 31/31/31
f 33/33/33 49/49/49 31/31/31
f 33/33/33 36/36/36 49/49/49
f 59/59/59 62/62/62 123/123/123
f 55/55/55 59/59/59 123/123/123
f 58/58/58 55/55/55 123/123/123
f 28/28/28 124/124/124 29/29/29
f 125/125/125 16/16/16 17/17/17
