mtllib engmount.mtl
usemtl engmount

g engmount
v -0.5184247 -0.008648083 -0.078708
v -0.5166099 -0.01592492 -0.09131443
v -0.5166099 0.01592378 -0.09131564
v -0.5184247 0.00864694 -0.07870861
v -0.5183998 -0.01729559 -0.06372964
v -0.5165638 -0.03184927 -0.06373268
v -0.4998496 -0.02523286 -0.1074636
v -0.4997767 -0.05046393 -0.06376123
v -0.5165176 -0.01592188 -0.0361491
v -0.4997031 -0.025228 -0.02005585
v -0.5165176 0.01592621 -0.03615214
v -0.5183749 0.008648762 -0.04875188
v -0.5183998 0.01729567 -0.06373085
v -0.5165638 0.03184934 -0.06373449
v -0.5183749 -0.00864626 -0.04875066
v -0.4997767 0.050464 -0.06376366
v -0.4998496 0.0252305 -0.1074648
v -0.4997031 0.02523475 -0.0200601
v -0.5295475 -0.04035279 0.07220392
v -0.5296155 -0.04762902 0.05946687
v -0.5275358 -0.03897969 0.04463249
v -0.525718 -0.02442601 0.04488767
v -0.5254567 -0.0476272 0.02979994
v -0.5218891 -0.04035036 0.01757265
v -0.5295469 -0.07220149 0.07220149
v -0.5151603 -0.08151003 0.09049657
v -0.5151609 -0.03104728 0.09050021
v -0.5090925 -0.1067393 0.04721587
v -0.525718 -0.08812401 0.04488585
v -0.5030259 -0.08150578 0.00393761
v -0.5218885 -0.07219845 0.01757204
v -0.5030259 -0.03104242 0.003938825
v -0.5275358 -0.07357034 0.04463189
v -0.5254567 -0.06492222 0.02979934
v -0.5296155 -0.06492404 0.05946565
v -0.5090931 -0.005811349 0.0472183
v -0.525718 0.08812409 0.04488585
v -0.5090925 0.1067394 0.04721587
v -0.5151603 0.0815101 0.09049657
v -0.5295469 0.07220156 0.07220149
v -0.5151609 0.03104675 0.09050021
v -0.5295475 0.04035286 0.07220392
v -0.5296155 0.06492411 0.05946565
v -0.5296155 0.04762909 0.05946687
v -0.5090931 0.005811422 0.0472183
v -0.525718 0.02442608 0.04488767
v -0.5030259 0.03104249 0.003938825
v -0.5218891 0.04034982 0.01757265
v -0.5030259 0.08150585 0.00393761
v -0.5218885 0.07219853 0.01757204
v -0.5254567 0.04762727 0.02979994
v -0.5254567 0.06492229 0.02979934
v -0.5275358 0.07357041 0.04463189
v -0.5275358 0.03897976 0.04463249

vn -0.9910389 -0.06258338 -0.1180056
vn -0.9125778 -0.2064286 -0.3529717
vn -0.9125778 0.2054918 -0.3535179
vn -0.9910389 0.06164658 -0.1184977
vn -0.9910389 -0.1279676 0.03829225
vn -0.9124971 -0.4090834 0
vn -0.7425789 -0.337197 -0.5786837
vn -0.7421326 -0.6702532 0
vn -0.9125778 -0.2064286 0.3529717
vn -0.7425789 -0.337197 0.5786837
vn -0.9125778 0.2054918 0.3535179
vn -0.9910389 0.06164658 0.1184977
vn -0.9910389 0.1270308 0.04129384
vn -0.9125778 0.4081828 0.02426069
vn -0.9910389 -0.06258338 0.1180056
vn -0.7425789 0.6697195 0.007234147
vn -0.7425789 0.3362602 -0.5792285
vn -0.7425789 0.3362602 0.5792285
vn -0.9518083 0.2054918 0.2276709
vn -0.9975773 0.06164658 -0.03223908
vn -0.9845004 0.1270308 -0.1209219
vn -0.9060394 0.4081828 -0.1117113
vn -0.9648852 0.06164658 -0.2553357
vn -0.853732 0.2054918 -0.4784503
vn -0.9518083 -0.2064286 0.2268218
vn -0.8145015 -0.337197 0.4721075
vn -0.8145015 0.3362602 0.4727752
vn -0.7360405 -0.6706563 -0.09200297
vn -0.9060394 -0.4091196 -0.1082301
vn -0.6575795 -0.337197 -0.6737117
vn -0.853732 -0.2064286 -0.4780469
vn -0.6575795 0.3362602 -0.6741797
vn -0.9845004 -0.1279676 -0.1199301
vn -0.9648852 -0.06258338 -0.2551077
vn -0.9975773 -0.06258338 -0.03038057
vn -0.7360405 0.6697195 -0.0985911
vn -0.9060394 0.4081828 -0.1117113
vn -0.7360405 0.6697195 -0.0985911
vn -0.8145015 0.3362602 0.4727752
vn -0.9518083 0.2054918 0.2276709
vn -0.8145015 -0.337197 0.4721075
vn -0.9518083 -0.2064286 0.2268218
vn -0.9975773 0.06164658 -0.03223908
vn -0.9975773 -0.06258338 -0.03038057
vn -0.7360405 -0.6706563 -0.09200297
vn -0.9060394 -0.4091196 -0.1082301
vn -0.6575795 -0.337197 -0.6737117
vn -0.853732 -0.2064286 -0.4780469
vn -0.6575795 0.3362602 -0.6741797
vn -0.853732 0.2054918 -0.4784503
vn -0.9648852 -0.06258338 -0.2551077
vn -0.9648852 0.06164658 -0.2553357
vn -0.9845004 0.1270308 -0.1209219
vn -0.9845004 -0.1279676 -0.1199301

f 1/1/1 3/3/3 2/2/2
f 1/1/1 4/4/4 3/3/3
f 5/5/5 1/1/1 2/2/2
f 5/5/5 2/2/2 6/6/6
f 6/6/6 2/2/2 7/7/7
f 6/6/6 7/7/7 8/8/8
f 9/9/9 6/6/6 8/8/8
f 9/9/9 8/8/8 10/10/10
f 11/11/11 9/9/9 10/10/10
f 12/12/12 9/9/9 11/11/11
f 13/13/13 12/12/12 11/11/11
f 13/13/13 11/11/11 14/14/14
f 4/4/4 14/14/14 3/3/3
f 4/4/4 13/13/13 14/14/14
f 12/12/12 15/15/15 9/9/9
f 15/15/15 6/6/6 9/9/9
f 15/15/15 5/5/5 6/6/6
f 3/3/3 14/14/14 16/16/16
f 3/3/3 16/16/16 17/17/17
f 2/2/2 17/17/17 7/7/7
f 2/2/2 3/3/3 17/17/17
f 14/14/14 18/18/18 16/16/16
f 14/14/14 11/11/11 18/18/18
f 11/11/11 10/10/10 18/18/18
f 19/19/19 21/21/21 20/20/20
f 19/19/19 22/22/22 21/21/21
f 22/22/22 23/23/23 21/21/21
f 22/22/22 24/24/24 23/23/23
f 25/25/25 19/19/19 20/20/20
f 26/26/26 19/19/19 25/25/25
f 26/26/26 27/27/27 19/19/19
f 27/27/27 22/22/22 19/19/19
f 28/28/28 26/26/26 25/25/25
f 28/28/28 25/25/25 29/29/29
f 30/30/30 28/28/28 29/29/29
f 30/30/30 29/29/29 31/31/31
f 32/32/32 31/31/31 24/24/24
f 32/32/32 30/30/30 31/31/31
f 31/31/31 29/29/29 33/33/33
f 31/31/31 33/33/33 34/34/34
f 24/24/24 34/34/34 23/23/23
f 24/24/24 31/31/31 34/34/34
f 25/25/25 20/20/20 35/35/35
f 29/29/29 35/35/35 33/33/33
f 29/29/29 25/25/25 35/35/35
f 36/36/36 24/24/24 22/22/22
f 36/36/36 32/32/32 24/24/24
f 27/27/27 36/36/36 22/22/22
f 37/37/37 39/39/39 38/38/38
f 37/37/37 40/40/40 39/39/39
f 40/40/40 41/41/41 39/39/39
f 40/40/40 42/42/42 41/41/41
f 43/43/43 42/42/42 40/40/40
f 43/43/43 44/44/44 42/42/42
f 42/42/42 45/45/45 41/41/41
f 42/42/42 46/46/46 45/45/45
f 44/44/44 46/46/46 42/42/42
f 46/46/46 47/47/47 45/45/45
f 46/46/46 48/48/48 47/47/47
f 48/48/48 49/49/49 47/47/47
f 48/48/48 50/50/50 49/49/49
f 50/50/50 38/38/38 49/49/49
f 50/50/50 37/37/37 38/38/38
f 51/51/51 50/50/50 48/48/48
f 51/51/51 52/52/52 50/50/50
f 52/52/52 37/37/37 50/50/50
f 52/52/52 53/53/53 37/37/37
f 53/53/53 43/43/43 40/40/40
f 44/44/44 54/54/54 46/46/46
f 54/54/54 48/48/48 46/46/46
f 54/54/54 51/51/51 48/48/48
f 53/53/53 40/40/40 37/37/37
