mtllib engout.mtl
usemtl engout

g engout
v -0.5773064 0.03907797 -0.06363332
v -0.544525 0.03072224 -0.06368771
v -0.5444804 0.01536286 -0.03708091
v -0.5772499 0.01954107 -0.02978996
v -0.5183749 0.008648574 -0.04875228
v -0.5183749 -0.008646511 -0.04875089
v -0.5444804 -0.0153587 -0.03707812
v -0.5184001 -0.0172951 -0.06372955
v -0.544525 -0.03072227 -0.06368562
v -0.5772499 -0.01953622 -0.02978717
v -0.5773064 -0.039078 -0.06363123
v -0.6164185 -0.02176339 -0.02586277
v -0.616482 -0.04353303 -0.06356499
v -0.5773629 -0.0195397 -0.0974732
v -0.6165454 -0.02176687 -0.1012651
v -0.5445697 -0.01536149 -0.09029173
v -0.5445697 0.01536007 -0.09029312
v -0.5184252 0.00864718 -0.07870821
v -0.5184252 -0.008647906 -0.07870752
v -0.5773629 0.01953758 -0.0974739
v -0.6165454 0.02176545 -0.1012665
v -0.616482 0.043533 -0.06356778
v -0.6164185 0.02176894 -0.02586626
v -0.5184001 0.01729577 -0.06373095
v -0.6299022 0.07804438 0.06834988
v -0.5905704 0.07581651 0.06996831
v -0.5905711 0.03673923 0.06997109
v -0.6299029 0.03451206 0.06835336
v -0.5571022 0.04091605 0.06735623
v -0.5534086 0.02555248 0.04100602
v -0.527536 0.03897965 0.04463267
v -0.5296154 0.04762894 0.059467
v -0.5254567 0.04762754 0.02979975
v -0.549715 0.04091326 0.01465722
v -0.5858727 0.01719745 0.03645476
v -0.5811743 0.03673574 0.002940521
v -0.5254567 0.06492262 0.02979905
v -0.549715 0.07163551 0.01465652
v -0.527536 0.07357052 0.04463198
v -0.5534086 0.08699769 0.04100394
v -0.5811743 0.07581303 0.002939126
v -0.585872 0.09535272 0.03645267
v -0.6194351 0.0780402 -0.006320296
v -0.6246683 0.09980775 0.03101374
v -0.6194351 0.03450787 -0.006318901
v -0.624669 0.01274241 0.03101584
v -0.5296154 0.06492402 0.0594656
v -0.5571022 0.07163831 0.06735343
v -0.5296154 -0.06492405 0.0594656
v -0.5571022 -0.07163833 0.06735343
v -0.5571022 -0.04091607 0.06735623
v -0.5296154 -0.04762897 0.059467
v -0.5905711 -0.03673926 0.06997109
v -0.5905704 -0.07581654 0.06996831
v -0.5534086 -0.08699772 0.04100394
v -0.585872 -0.09535275 0.03645267
v -0.6299022 -0.07804441 0.06834988
v -0.6246683 -0.09980778 0.03101374
v -0.549715 -0.07163554 0.01465652
v -0.5254567 -0.06492196 0.02979905
v -0.527536 -0.07357055 0.04463198
v -0.5254567 -0.04762687 0.02979975
v -0.549715 -0.04091329 0.01465722
v -0.5811743 -0.07581306 0.002939126
v -0.5811743 -0.03673577 0.002940521
v -0.6194351 -0.07804023 -0.006320296
v -0.6194351 -0.0345079 -0.006318901
v -0.527536 -0.03897968 0.04463267
v -0.5534086 -0.02555251 0.04100602
v -0.5858727 -0.01719748 0.03645476
v -0.624669 -0.01274244 0.03101584
v -0.6299029 -0.03451209 0.06835336

vn 0.1826459 0.9831787 0
vn 0.3545774 0.9312528 -0.08392332
vn 0.3545774 0.4636782 0.811959
vn 0.1831334 0.4948498 0.8494621
vn 0.4558853 0.4480923 0.7690136
vn 0.4558853 -0.4480923 0.7690136
vn 0.3545774 -0.4636782 0.811959
vn 0.454974 -0.8905047 0
vn 0.3545774 -0.9312528 -0.08392332
vn 0.1831334 -0.4948498 0.8494621
vn 0.1826459 -0.9831787 0
vn 0.1129972 -0.4948498 0.8616004
vn 0.1129971 -0.9935954 0
vn 0.1753405 -0.4948498 -0.8511048
vn 0.1129972 -0.4948498 -0.8616004
vn 0.3545774 -0.4636782 -0.811959
vn 0.3545774 0.4636782 -0.811959
vn 0.4558853 0.4480923 -0.7690136
vn 0.4558853 -0.4480923 -0.7690136
vn 0.1753405 0.4948498 -0.8511048
vn 0.1129972 0.4948498 -0.8616004
vn 0.1129971 0.9935954 0
vn 0.1129972 0.4948498 0.8616004
vn 0.454974 0.8905047 0
vn -0.003896455 0.4948498 0.8689698
vn 0.05844683 0.4948498 0.8670107
vn 0.05844683 -0.4948498 0.8670107
vn -0.003896455 -0.4948498 0.8689698
vn 0.2376838 -0.4636782 0.8535274
vn 0.3545774 -0.9312528 0.08392332
vn 0.454974 -0.8905047 0
vn 0.3467845 -0.4480923 0.8239865
vn 0.5571931 -0.4480923 -0.6991059
vn 0.4636782 -0.4636782 -0.7549868
vn 0.1751172 -0.9845476 0
vn 0.300027 -0.4948498 -0.8155412
vn 0.5571931 0.4480923 -0.6991059
vn 0.4636782 0.4636782 -0.7549868
vn 0.454974 0.8905047 0
vn 0.3545774 0.9312528 0.08392332
vn 0.300027 0.4948498 -0.8155412
vn 0.1751172 0.9845476 0
vn 0.2298909 0.4948498 -0.8380178
vn 0.1129971 0.9935954 0
vn 0.2298909 -0.4948498 -0.8380178
vn 0.1129971 -0.9935954 0
vn 0.3467845 0.4480923 0.8239865
vn 0.2376838 0.4636782 0.8535274
vn 0.3467845 -0.4480923 0.8239865
vn 0.2376838 -0.4636782 0.8535274
vn 0.2376838 0.4636782 0.8535274
vn 0.3467845 0.4480923 0.8239865
vn 0.05844683 0.4948498 0.8670107
vn 0.05844683 -0.4948498 0.8670107
vn 0.3545774 -0.9312528 0.08392332
vn 0.1751172 -0.9845476 0
vn -0.003896455 -0.4948498 0.8689698
vn 0.1129971 -0.9935954 0
vn 0.4636782 -0.4636782 -0.7549868
vn 0.5571931 -0.4480923 -0.6991059
vn 0.454974 -0.8905047 0
vn 0.5571931 0.4480923 -0.6991059
vn 0.4636782 0.4636782 -0.7549868
vn 0.300027 -0.4948498 -0.8155412
vn 0.300027 0.4948498 -0.8155412
vn 0.2298909 -0.4948498 -0.8380178
vn 0.2298909 0.4948498 -0.8380178
vn 0.454974 0.8905047 0
vn 0.3545774 0.9312528 0.08392332
vn 0.1751172 0.9845476 0
vn 0.1129971 0.9935954 0
vn -0.003896455 0.4948498 0.8689698

f 1/1/1 3/3/3 2/2/2
f 1/1/1 4/4/4 3/3/3
f 2/2/2 3/3/3 5/5/5
f 3/3/3 6/6/6 5/5/5
f 3/3/3 7/7/7 6/6/6
f 4/4/4 7/7/7 3/3/3
f 7/7/7 8/8/8 6/6/6
f 7/7/7 9/9/9 8/8/8
f 10/10/10 9/9/9 7/7/7
f 4/4/4 10/10/10 7/7/7
f 10/10/10 11/11/11 9/9/9
f 12/12/12 11/11/11 10/10/10
f 12/12/12 13/13/13 11/11/11
f 13/13/13 14/14/14 11/11/11
f 13/13/13 15/15/15 14/14/14
f 11/11/11 16/16/16 9/9/9
f 11/11/11 14/14/14 16/16/16
f 14/14/14 17/17/17 16/16/16
f 16/16/16 17/17/17 18/18/18
f 16/16/16 18/18/18 19/19/19
f 9/9/9 19/19/19 8/8/8
f 9/9/9 16/16/16 19/19/19
f 14/14/14 20/20/20 17/17/17
f 15/15/15 20/20/20 14/14/14
f 15/15/15 21/21/21 20/20/20
f 21/21/21 1/1/1 20/20/20
f 21/21/21 22/22/22 1/1/1
f 22/22/22 4/4/4 1/1/1
f 22/22/22 23/23/23 4/4/4
f 23/23/23 10/10/10 4/4/4
f 23/23/23 12/12/12 10/10/10
f 17/17/17 24/24/24 18/18/18
f 17/17/17 2/2/2 24/24/24
f 20/20/20 2/2/2 17/17/17
f 20/20/20 1/1/1 2/2/2
f 2/2/2 5/5/5 24/24/24
f 25/25/25 27/27/27 26/26/26
f 25/25/25 28/28/28 27/27/27
f 26/26/26 27/27/27 29/29/29
f 27/27/27 30/30/30 29/29/29
f 29/29/29 30/30/30 31/31/31
f 29/29/29 31/31/31 32/32/32
f 30/30/30 33/33/33 31/31/31
f 30/30/30 34/34/34 33/33/33
f 35/35/35 34/34/34 30/30/30
f 27/27/27 35/35/35 30/30/30
f 28/28/28 35/35/35 27/27/27
f 35/35/35 36/36/36 34/34/34
f 34/34/34 37/37/37 33/33/33
f 34/34/34 38/38/38 37/37/37
f 36/36/36 38/38/38 34/34/34
f 38/38/38 39/39/39 37/37/37
f 38/38/38 40/40/40 39/39/39
f 41/41/41 40/40/40 38/38/38
f 36/36/36 41/41/41 38/38/38
f 41/41/41 42/42/42 40/40/40
f 43/43/43 42/42/42 41/41/41
f 43/43/43 44/44/44 42/42/42
f 45/45/45 41/41/41 36/36/36
f 45/45/45 43/43/43 41/41/41
f 46/46/46 36/36/36 35/35/35
f 46/46/46 45/45/45 36/36/36
f 40/40/40 47/47/47 39/39/39
f 40/40/40 48/48/48 47/47/47
f 42/42/42 48/48/48 40/40/40
f 48/48/48 32/32/32 47/47/47
f 48/48/48 29/29/29 32/32/32
f 26/26/26 29/29/29 48/48/48
f 42/42/42 26/26/26 48/48/48
f 44/44/44 26/26/26 42/42/42
f 44/44/44 25/25/25 26/26/26
f 28/28/28 46/46/46 35/35/35
f 49/49/49 51/51/51 50/50/50
f 49/49/49 52/52/52 51/51/51
f 50/50/50 51/51/51 53/53/53
f 50/50/50 53/53/53 54/54/54
f 55/55/55 50/50/50 54/54/54
f 55/55/55 54/54/54 56/56/56
f 56/56/56 54/54/54 57/57/57
f 56/56/56 57/57/57 58/58/58
f 59/59/59 55/55/55 56/56/56
f 60/60/60 55/55/55 59/59/59
f 60/60/60 61/61/61 55/55/55
f 61/61/61 50/50/50 55/55/55
f 61/61/61 49/49/49 50/50/50
f 62/62/62 60/60/60 59/59/59
f 62/62/62 59/59/59 63/63/63
f 63/63/63 59/59/59 64/64/64
f 59/59/59 56/56/56 64/64/64
f 64/64/64 56/56/56 58/58/58
f 63/63/63 64/64/64 65/65/65
f 65/65/65 64/64/64 66/66/66
f 64/64/64 58/58/58 66/66/66
f 65/65/65 66/66/66 67/67/67
f 68/68/68 62/62/62 63/63/63
f 68/68/68 63/63/63 69/69/69
f 69/69/69 63/63/63 65/65/65
f 70/70/70 65/65/65 67/67/67
f 69/69/69 65/65/65 70/70/70
f 70/70/70 67/67/67 71/71/71
f 53/53/53 70/70/70 71/71/71
f 53/53/53 71/71/71 72/72/72
f 51/51/51 70/70/70 53/53/53
f 51/51/51 69/69/69 70/70/70
f 54/54/54 53/53/53 72/72/72
f 54/54/54 72/72/72 57/57/57
f 52/52/52 69/69/69 51/51/51
f 52/52/52 68/68/68 69/69/69
